Coordinates
version=1
nRows=12
nColumns=34
inDegrees=yes

Units are S.I. units (second, meters, Newtons, ...)
If the header above contains a line with 'inDegrees', this indicates whether rotational values are in degrees (yes) or radians (no).

endheader
time	pelvis_tilt	pelvis_list	pelvis_rotation	pelvis_tx	pelvis_ty	pelvis_tz	hip_flexion_r	hip_adduction_r	hip_rotation_r	knee_angle_r	ankle_angle_r	subtalar_angle_r	mtp_angle_r	hip_flexion_l	hip_adduction_l	hip_rotation_l	knee_angle_l	ankle_angle_l	subtalar_angle_l	mtp_angle_l	lumbar_extension	lumbar_bending	lumbar_rotation	arm_flex_r	arm_add_r	arm_rot_r	elbow_flex_r	pro_sup_r	arm_flex_l	arm_add_l	arm_rot_l	elbow_flex_l	pro_sup_l
      1.98333330	    -11.97341518	      2.13663508	      3.21033225	      0.89736189	      1.25524741	     -0.11699643	     17.08110843	     -3.37757735	    -15.73870391	      2.28226851	    -33.19550451	     -2.89706974	      0.00000000	     17.45123853	      1.69701091	     -4.80734983	      5.41907973	    -27.43489638	      4.05154041	      0.00000000	     -4.01850940	     -3.05467438	      1.77080140	     23.48642554	    -38.74765716	     36.60313032	    145.08317785	     87.46263234	     50.75082831	    -19.36685499	     60.89768836	    148.77017425	     76.26406629
      2.00000000	    -12.18793524	      1.84963366	      3.22834372	      0.89459632	      1.25389513	     -0.11772214	     18.72391755	     -3.25221597	    -14.00308886	      3.46927541	    -31.93565315	     -2.59120625	      0.00000000	     18.63887163	      1.29214911	     -4.20792090	      5.81156141	    -25.90680368	      3.73442313	      0.00000000	     -5.83341311	     -2.15291811	      1.01730929	     22.09817215	    -35.17227597	     35.79987574	    144.23115799	     87.51218462	     47.27639548	    -17.95098438	     59.10123869	    150.00035077	     76.49579358
      2.01666670	    -12.74302858	      1.41551455	      3.62742577	      0.89467118	      1.25343911	     -0.11815116	     20.46362186	     -3.14802915	    -12.82896208	      4.40478873	    -30.02173845	     -2.48086177	      0.00000000	     20.12210488	      0.75779171	     -4.00048096	      6.01914785	    -24.31189738	      3.51775949	      0.00000000	     -6.82100494	     -1.02354319	      0.43231769	     20.52695439	    -31.76201792	     34.35924404	    143.96922929	     87.62691503	     44.58400243	    -15.96771656	     56.19861100	    150.00035077	     77.15251587
      2.03333330	    -13.17056923	      1.15583120	      3.76835768	      0.89429646	      1.25670191	     -0.11814359	     21.87297769	     -3.17575195	    -11.76745860	      4.98252834	    -27.44731874	     -2.06276104	      0.00000000	     21.26457336	      0.23117034	     -4.18322767	      5.86313753	    -22.77187083	      3.05298539	      0.00000000	     -8.11952877	     -0.27692593	      0.04840647	     18.31953449	    -28.99853420	     33.02713937	    144.44219143	     87.96467914	     42.44012268	    -14.18707543	     54.49546737	    150.00035077	     78.15864580
      2.05000000	    -13.48737826	      0.83077304	      3.88920273	      0.89405319	      1.25258424	     -0.11913075	     22.95449969	     -3.16654037	    -10.60892185	      5.56797485	    -25.04569379	     -1.72145626	      0.00000000	     22.21160271	     -0.31591435	     -4.37162241	      5.60221182	    -21.21656404	      2.67979035	      0.00000000	     -9.34492818	      0.48739191	     -0.22728444	     16.22773945	    -26.78463902	     31.53728656	    144.53331045	     88.54771697	     40.95531664	    -12.20258128	     52.75537050	    149.60821733	     79.27666892
      2.06666670	    -13.39549302	      0.57977098	      3.63067046	      0.88900748	      1.24709326	     -0.12179581	     23.48344594	     -3.18642590	     -9.68872100	      5.95528555	    -23.91944458	     -1.71603628	      0.00000000	     22.59107196	     -0.85215665	     -4.59606239	      5.18794535	    -20.53884035	      2.31424126	      0.00000000	    -10.57872321	      0.85256422	     -0.87271560	     16.00258500	    -24.67696131	     31.56579430	    144.47920880	     88.69926073	     40.61931787	    -10.48259749	     52.35919427	    148.55688540	     79.43289133
      2.08333330	    -13.28973902	      0.64803713	      3.13243161	      0.89059331	      1.24450663	     -0.12142819	     23.62772465	     -3.38021471	     -8.85871732	      6.09191169	    -23.24678513	     -0.71772882	      0.00000000	     22.57196839	     -1.15067984	     -5.25425257	      4.45833913	    -21.08808223	      2.48224698	      0.00000000	    -11.23561179	      0.65100551	     -1.16916687	     15.45670838	    -22.97844097	     30.41180033	    143.29103945	     89.51056224	     39.33757729	     -8.88299961	     49.70829237	    146.28538160	     80.18572344
      2.10000000	    -13.23721866	      0.72811314	      2.72978782	      0.89177847	      1.23023830	     -0.12169541	     23.56039859	     -3.57272707	     -8.41044124	      6.18049540	    -23.66091000	     -0.23998785	      0.00000000	     22.56178697	     -1.39512581	     -5.41207185	      4.11602775	    -22.03388863	      2.80663168	      0.00000000	    -11.82370960	      0.55662849	     -1.58211389	     15.04812368	    -21.21742219	     30.35290591	    142.66370181	     90.21756511	     38.21595962	     -7.32443503	     48.76566500	    145.22593526	     80.76194305
      2.11666670	    -13.41766752	      0.91578700	      2.39901270	      0.89180926	      1.21568740	     -0.12418039	     23.59232412	     -3.90003881	     -8.04547425	      6.40468761	    -24.15898183	      0.45688427	      0.00000000	     22.77785579	     -1.38927824	     -5.21371431	      4.11478995	    -23.37537341	      3.27657039	      0.00000000	    -12.06892857	      0.59006199	     -2.57804014	     15.30275581	    -19.28157074	     31.03638906	    142.26188693	     99.53353764	     36.58662567	     -6.12278816	     46.88762351	    144.63492980	     88.03167081
      2.13333330	    -13.40353449	      1.04435333	      2.05249621	      0.89485223	      1.19577524	     -0.12620307	     23.34622648	     -4.08877352	     -7.61679658	      7.05703408	    -24.92452940	      0.86531989	      0.00000000	     22.62904757	     -1.46713965	     -4.97236883	      4.54172669	    -24.45238116	      3.64475371	      0.00000000	    -12.37467474	      0.58719765	     -2.78657937	     15.24080717	    -17.91724070	     31.28788670	    142.33205764	     99.59861001	     35.73189021	     -4.64974678	     47.02890145	    143.95801831	     88.06878259
      2.15000000	    -13.38298502	      1.01741550	      1.69268310	      0.89765382	      1.16665948	     -0.12846661	     23.11926918	     -4.15997978	     -7.17604529	      8.16641384	    -25.50543213	      0.88003418	      0.00000000	     22.44196875	     -1.61457139	     -4.69653899	      5.38016410	    -25.36966467	      3.66486486	      0.00000000	    -12.47641903	      0.79851630	     -2.76958529	     15.41229716	    -16.91394666	     31.44434650	    142.40821294	     99.71543695	     34.74164450	     -3.24128123	     46.92753287	    143.23282713	     88.14600737
      2.16666670	    -13.76649635	      1.20538009	      1.58747866	      0.89766244	      1.14029377	     -0.12875003	     23.47253270	     -4.38822402	     -6.22393534	      9.72281403	    -26.15802588	      0.00223816	      0.00000000	     22.79822751	     -1.44950564	     -4.45794728	      6.69869029	    -27.43507383	      2.08316411	      0.00000000	    -12.04282661	      0.74411078	     -2.70270932	     15.61255092	    -16.10692714	     31.82874200	    143.00271493	    100.16045234	     33.77531749	     -2.08469293	     46.14138829	    142.11994369	     88.45951712
